<svg xmlns="http://www.w3.org/2000/svg" width="162.782" height="29.654" viewBox="0 0 162.782 29.654"><defs><style>.a{fill:#617392;}.b{fill:#1cc6d3;}</style></defs><g transform="translate(303.782 5542.46)"><path class="a" d="M12.081,8.155A14.316,14.316,0,0,1,6.61,7.164,8.918,8.918,0,0,1,2.744,4.23,8.015,8.015,0,0,1,1.218-.448H8.433A3.5,3.5,0,0,0,9.5,1.911a3.441,3.441,0,0,0,2.379.813,3.72,3.72,0,0,0,2.379-.694A2.32,2.32,0,0,0,15.133.107a2.276,2.276,0,0,0-.694-1.7,5.6,5.6,0,0,0-1.7-1.11A27.421,27.421,0,0,0,9.861-3.7a31.3,31.3,0,0,1-4.4-1.665A8.131,8.131,0,0,1,2.526-7.822,6.849,6.849,0,0,1,1.3-12.064,7.294,7.294,0,0,1,4.112-18.15a11.566,11.566,0,0,1,7.334-2.2,11.7,11.7,0,0,1,7.414,2.2,7.876,7.876,0,0,1,3.013,6.125H14.539a2.868,2.868,0,0,0-.991-2.121,3.492,3.492,0,0,0-2.339-.773,2.915,2.915,0,0,0-1.982.654,2.359,2.359,0,0,0-.753,1.883,2.334,2.334,0,0,0,1.269,2.1,20.8,20.8,0,0,0,3.964,1.625A36.664,36.664,0,0,1,18.087-6.91,8.34,8.34,0,0,1,21-4.492,6.474,6.474,0,0,1,22.23-.409a8.013,8.013,0,0,1-1.209,4.321,8.469,8.469,0,0,1-3.509,3.092A12.011,12.011,0,0,1,12.081,8.155Zm35.165-11.7a17.3,17.3,0,0,1-.119,1.982H31.784a4.61,4.61,0,0,0,1.328,3.152,4.057,4.057,0,0,0,2.874,1.09A3.563,3.563,0,0,0,39.515.543H46.73a9.9,9.9,0,0,1-2,3.925A10.024,10.024,0,0,1,41.1,7.2a11.652,11.652,0,0,1-4.876.991,11.866,11.866,0,0,1-5.788-1.388,9.87,9.87,0,0,1-3.964-3.964,12.239,12.239,0,0,1-1.427-6.026A12.379,12.379,0,0,1,26.452-9.21,9.742,9.742,0,0,1,30.4-13.174a11.949,11.949,0,0,1,5.828-1.388,11.829,11.829,0,0,1,5.709,1.348,9.679,9.679,0,0,1,3.905,3.846A11.673,11.673,0,0,1,47.246-3.541ZM40.308-5.325A3.486,3.486,0,0,0,39.119-8.1,4.378,4.378,0,0,0,36.145-9.13a4.294,4.294,0,0,0-2.874.991,4.4,4.4,0,0,0-1.447,2.815ZM57.593-21.46V7.877H50.814V-21.46Zm11.7,0V7.877H62.509V-21.46ZM95.058-3.541a17.305,17.305,0,0,1-.119,1.982H79.6a4.61,4.61,0,0,0,1.328,3.152A4.058,4.058,0,0,0,83.8,2.684,3.563,3.563,0,0,0,87.327.543h7.215a9.9,9.9,0,0,1-2,3.925A10.024,10.024,0,0,1,88.913,7.2a11.652,11.652,0,0,1-4.876.991,11.866,11.866,0,0,1-5.788-1.388,9.87,9.87,0,0,1-3.965-3.964,12.239,12.239,0,0,1-1.427-6.026A12.379,12.379,0,0,1,74.264-9.21a9.742,9.742,0,0,1,3.945-3.964,11.949,11.949,0,0,1,5.828-1.388,11.829,11.829,0,0,1,5.709,1.348A9.679,9.679,0,0,1,93.65-9.368,11.673,11.673,0,0,1,95.058-3.541ZM88.12-5.325A3.486,3.486,0,0,0,86.93-8.1,4.378,4.378,0,0,0,83.957-9.13a4.294,4.294,0,0,0-2.874.991,4.4,4.4,0,0,0-1.447,2.815ZM105.4-10.558a8.943,8.943,0,0,1,2.973-2.874,7.667,7.667,0,0,1,3.964-1.051v7.176h-1.863a5.712,5.712,0,0,0-3.806,1.09Q105.4-5.126,105.4-2.391V7.877H98.626V-14.245H105.4ZM120.866,7.877h0Zm31.161-5.55H164v5.55H144.336V2.723L156.23-14.4H144.336v-5.55H164V-14.8Z" transform="translate(-305 -5521)"/><path class="b" d="M90.645,7.473h-7.1l10.07-27.831h7.85l10.07,27.831H90.645ZM100.953-2.676,97.5-12.865,94.095-2.676Z" transform="translate(-274.779 -5520.278)"/></g></svg>