<svg xmlns="http://www.w3.org/2000/svg" width="133.028" height="16.603" viewBox="0 0 133.028 16.603"><defs><style>.a{fill:#08a7f2;}</style></defs><path class="a" d="M3.862,10.656l-.878,5.381a.52.52,0,0,0,.764.538l4.566-2.523,4.566,2.524a.52.52,0,0,0,.764-.538l-.878-5.381L16.48,6.85a.52.52,0,0,0-.293-.876l-5.112-.781L8.784.312a.541.541,0,0,0-.94,0L5.553,5.192.441,5.972a.519.519,0,0,0-.293.876Z" transform="translate(0 -0.039)"/><path class="a" d="M3.862,10.656l-.878,5.381a.52.52,0,0,0,.764.538l4.566-2.523,4.566,2.524a.52.52,0,0,0,.764-.538l-.878-5.381L16.48,6.85a.52.52,0,0,0-.293-.876l-5.112-.781L8.784.312a.541.541,0,0,0-.94,0L5.553,5.192.441,5.972a.519.519,0,0,0-.293.876Z" transform="translate(29.1 -0.039)"/><path class="a" d="M3.862,10.656l-.878,5.381a.52.52,0,0,0,.764.538l4.566-2.523,4.566,2.524a.52.52,0,0,0,.764-.538l-.878-5.381L16.48,6.85a.52.52,0,0,0-.293-.876l-5.112-.781L8.784.312a.541.541,0,0,0-.94,0L5.553,5.192.441,5.972a.519.519,0,0,0-.293.876Z" transform="translate(58.2 -0.039)"/><path class="a" d="M3.862,10.656l-.878,5.381a.52.52,0,0,0,.764.538l4.566-2.523,4.566,2.524a.52.52,0,0,0,.764-.538l-.878-5.381L16.48,6.85a.52.52,0,0,0-.293-.876l-5.112-.781L8.784.312a.541.541,0,0,0-.94,0L5.553,5.192.441,5.972a.519.519,0,0,0-.293.876Z" transform="translate(87.3 -0.039)"/><path class="a" d="M3.862,10.656l-.878,5.381a.52.52,0,0,0,.764.538l4.566-2.523,4.566,2.524a.52.52,0,0,0,.764-.538l-.878-5.381L16.48,6.85a.52.52,0,0,0-.293-.876l-5.112-.781L8.784.312a.541.541,0,0,0-.94,0L5.553,5.192.441,5.972a.519.519,0,0,0-.293.876Z" transform="translate(116.4 -0.039)"/></svg>